Coordinates
version=1
nRows=8
nColumns=63
inDegrees=yes

Units are S.I. units (second, meters, Newtons, ...)
If the header above contains a line with 'inDegrees', this indicates whether rotational values are in degrees (yes) or radians (no).

endheader
time	pelvis_tilt	pelvis_list	pelvis_rotation	pelvis_tx	pelvis_ty	pelvis_tz	hip_flexion_r	hip_adduction_r	hip_rotation_r	knee_angle_r	knee_angle_r_beta	ankle_angle_r	subtalar_angle_r	mtp_angle_r	hip_flexion_l	hip_adduction_l	hip_rotation_l	knee_angle_l	knee_angle_l_beta	ankle_angle_l	subtalar_angle_l	mtp_angle_l	L5_S1_Flex_Ext	L5_S1_Lat_Bending	L5_S1_axial_rotation	L4_L5_Flex_Ext	L4_L5_Lat_Bending	L4_L5_axial_rotation	L3_L4_Flex_Ext	L3_L4_Lat_Bending	L3_L4_axial_rotation	L2_L3_Flex_Ext	L2_L3_Lat_Bending	L2_L3_axial_rotation	L1_L2_Flex_Ext	L1_L2_Lat_Bending	L1_L2_axial_rotation	L1_T12_Flex_Ext	L1_T12_Lat_Bending	L1_T12_axial_rotation	Abs_r3	Abs_r2	Abs_r1	Abs_t1	Abs_t2	neck_flexion	neck_bending	neck_rotation	arm_flex_r	arm_add_r	arm_rot_r	elbow_flex_r	pro_sup_r	wrist_flex_r	wrist_dev_r	arm_flex_l	arm_add_l	arm_rot_l	elbow_flex_l	pro_sup_l	wrist_flex_l	wrist_dev_l
      3.41666667	      2.23779228	     -4.83690727	     86.58396532	      0.18845439	      0.67419549	      0.78668721	      9.52395365	     -1.04226655	     -7.46125594	      9.19426157	      0.16047014	     34.65962244	     14.85614276	      0.00000000	      8.85606757	      0.24972042	     -2.05074012	      5.18182055	      0.09043983	     33.59033968	     -9.95430955	      0.00000000	      0.17770794	      0.22519592	      0.94324509	      0.33002141	      0.29951058	      1.00219791	      0.29195637	      0.54754137	      1.00219791	      0.20310240	      0.54754137	      0.82533945	      0.16501959	      0.45921953	      0.76638663	      0.10154232	      0.34882849	      0.70743382	      1.26935003	      2.54746134	      5.24604620	      0.00000000	      0.00000000	     27.81116666	     10.12491680	     19.98787005	     15.09899782	     -4.26315071	    151.04326480	      7.59574123	      4.68243627	     -9.72002075	     -6.57653783	     16.43636575	      0.68645411	    153.59979310	      6.04834598	      3.64031890	    -11.26246311	    -16.63593978
      3.43750000	      2.21277176	     -4.86648626	     86.58028669	      0.18858341	      0.67414565	      0.78666463	      9.54875267	     -1.06107085	     -7.43370332	      9.18080049	      0.16023520	     34.65941582	     14.81849147	      0.00000000	      8.91714508	      0.27216419	     -1.99065187	      5.26052049	      0.09181340	     33.48514261	    -10.17940693	      0.00000000	      0.17530466	      0.22097507	      0.94613362	      0.32555829	      0.29389685	      1.00526697	      0.28800803	      0.53727879	      1.00526697	      0.20035570	      0.53727879	      0.82786691	      0.16278791	      0.45061237	      0.76873356	      0.10016908	      0.34229039	      0.70960021	      1.25218368	      2.49971423	      5.26211134	      0.00000000	      0.00000000	     27.80177206	     10.26519916	     20.12823965	     15.08102399	     -4.24291039	    150.98691566	      7.57721968	      4.67012667	     -9.77459030	     -6.52222045	     16.13962112	      0.78626116	    154.93731423	      5.14666461	      3.35227389	    -11.20350619	    -16.70542629
      3.45833333	      2.18094395	     -4.92400962	     86.54313036	      0.18863035	      0.67415822	      0.78665984	      9.61846375	     -1.09452666	     -7.49252395	      9.17299551	      0.16009897	     34.64821081	     14.93076496	      0.00000000	      9.01347193	      0.29385928	     -2.13556047	      5.33850277	      0.09317445	     33.38237515	    -10.16457247	      0.00000000	      0.16969199	      0.22030271	      0.94954101	      0.31513500	      0.29300260	      1.00888732	      0.27878698	      0.53564401	      1.00888732	      0.19394098	      0.53564401	      0.83084838	      0.15757599	      0.44924128	      0.77150207	      0.09696201	      0.34124890	      0.71215576	      1.21209294	      2.49210831	      5.28106223	      0.00000000	      0.00000000	     27.77981929	     10.46277488	     20.50240777	     15.06335315	     -4.25388428	    151.04024754	      7.46553283	      4.65130342	     -9.68477087	     -6.47698698	     15.94840098	      0.87096625	    156.23905275	      4.43134560	      3.17735695	    -11.23630797	    -16.95662609
      3.47916667	      2.21345792	     -5.00826915	     86.31108172	      0.18889050	      0.67421078	      0.78665656	      9.75001243	     -1.02774032	     -7.32945086	      9.20412184	      0.16064223	     34.59507666	     14.99635775	      0.00000000	      9.06290634	      0.22991069	     -2.27336349	      5.32186374	      0.09288404	     33.19247392	    -10.40002068	      0.00000000	      0.16431757	      0.22978236	      0.99272697	      0.30515416	      0.30561054	      1.05477240	      0.26995733	      0.55869283	      1.05477240	      0.18779855	      0.55869283	      0.86863610	      0.15258529	      0.46857218	      0.80659066	      0.09389106	      0.35593287	      0.74454522	      1.17370396	      2.59934399	      5.52124957	      0.00000000	      0.00000000	     27.73765848	     10.61929281	     20.99410166	     15.06742515	     -4.34423438	    150.35802495	      7.52780323	      5.10294699	     -9.86830594	     -6.35446349	     15.89548717	      0.98551682	    157.65363745	      3.98810901	      3.08704381	    -11.77983738	    -17.23891698
      3.50000000	      2.32566015	     -5.10681910	     86.33386750	      0.18886995	      0.67429011	      0.78668688	      9.81684069	     -0.89025243	     -7.22467719	      9.14600757	      0.15962795	     34.47370044	     14.82596712	      0.00000000	      9.20021649	      0.09077128	     -2.62611437	      5.42326619	      0.09465385	     33.16415203	     -9.99753183	      0.00000000	      0.15828760	      0.24971794	      0.98549482	      0.29395591	      0.33212486	      1.04708825	      0.26005070	      0.60716419	      1.04708825	      0.18090690	      0.60716419	      0.86230797	      0.14698587	      0.50922482	      0.80071454	      0.09044554	      0.38681309	      0.73912112	      1.13063251	      2.82485926	      5.48102657	      0.00000000	      0.00000000	     27.70481328	     10.75626254	     21.64247331	     15.09743637	     -4.40019914	    150.90629708	      7.42051343	      4.61187502	     -9.71611385	     -6.16869979	     15.97528930	      1.10253414	    158.83661182	      3.76539156	      3.19780030	    -12.08109357	    -17.46370667
      3.52083333	      2.40529127	     -5.20071426	     86.17885185	      0.18897990	      0.67438272	      0.78661674	      9.91216832	     -0.76366800	     -6.86671909	      9.13815447	      0.15949088	     34.36461447	     14.54370949	      0.00000000	      9.21635477	      0.01361588	     -2.27322973	      5.32493978	      0.09293773	     32.79540544	    -10.78574605	      0.00000000	      0.15449967	      0.26715560	      1.00498422	      0.28692133	      0.35531695	      1.06779573	      0.25382750	      0.64956212	      1.06779573	      0.17657767	      0.64956212	      0.87936119	      0.14346839	      0.54478370	      0.81654968	      0.08828111	      0.41382402	      0.75373816	      1.10357567	      3.02211756	      5.58942073	      0.00000000	      0.00000000	     27.65831134	     10.96605509	     22.33131881	     15.08248052	     -4.49137509	    150.71653670	      7.34227564	      4.71713589	     -9.74367954	     -6.04557494	     16.16552103	      1.18630484	    159.46562699	      4.00386356	      3.31582720	    -12.88050604	    -17.71669139
      3.54166667	      2.48202629	     -5.26605153	     86.21017900	      0.18884972	      0.67449398	      0.78649779	      9.91080757	     -0.68540930	     -6.98399916	      9.05748085	      0.15808286	     34.29243499	     14.62301723	      0.00000000	      9.24217367	     -0.03849937	     -1.88420103	      5.26097354	      0.09182131	     32.51322529	    -11.34330402	      0.00000000	      0.15001641	      0.28307001	      0.99274906	      0.27859548	      0.37648312	      1.05479588	      0.24646196	      0.68825643	      1.05479588	      0.17145376	      0.68825643	      0.86865543	      0.13930524	      0.57723637	      0.80660861	      0.08571938	      0.43847545	      0.74456180	      1.07155222	      3.20214461	      5.52137246	      0.00000000	      0.00000000	     27.62371361	     11.14684309	     22.93196821	     15.08468902	     -4.58327510	    150.50425692	      7.32284135	      4.75908488	     -9.76937125	     -5.94677816	     16.41670597	      1.25734815	    159.99236215	      4.34825370	      3.53460394	    -13.45377296	    -17.78320003
      3.56250000	      2.52431281	     -5.28710122	     86.17457988	      0.18890979	      0.67456537	      0.78623623	      9.84662253	     -0.60866219	     -6.85378420	      8.95231499	      0.15624737	     34.21450915	     14.47674644	      0.00000000	      9.22138719	     -0.10752156	     -2.16494019	      5.20459311	      0.09083729	     32.56885618	    -10.96249449	      0.00000000	      0.14784525	      0.29148233	      0.98815681	      0.27456341	      0.38767150	      1.04991661	      0.24289496	      0.70871013	      1.04991661	      0.16897234	      0.70871013	      0.86463721	      0.13728910	      0.59439076	      0.80287741	      0.08447878	      0.45150613	      0.74111761	      1.05604384	      3.29730640	      5.49583174	      0.00000000	      0.00000000	     27.60905331	     11.22579391	     23.27251477	     15.08535212	     -4.60208694	    150.75464402	      7.27570265	      4.66833042	     -9.73430603	     -5.86531389	     16.57888587	      1.26464375	    160.31256696	      4.63600468	      3.60612204	    -13.73756006	    -17.90213996
